<svg xmlns="http://www.w3.org/2000/svg" viewBox="0 0 32 32">
  <defs>
    <linearGradient id="kittyBox" x1="6" y1="4" x2="26" y2="28" gradientUnits="userSpaceOnUse">
      <stop offset="0" stop-color="#FFE4B7" />
      <stop offset="0.55" stop-color="#DB9C4B" />
      <stop offset="1" stop-color="#B66E2D" />
    </linearGradient>
  </defs>
  <rect width="32" height="32" rx="8" fill="#173630" />
  <rect x="6.5" y="11" width="19" height="14.5" rx="4" fill="url(#kittyBox)" />
  <path d="M11.4 11c0-2.6 2.1-4.8 4.8-4.8h.2c2.7 0 4.8 2.1 4.8 4.8" fill="none" stroke="#FFF4D8" stroke-linecap="round" stroke-width="2" />
  <path d="M12.5 16.5h7" stroke="#173630" stroke-linecap="round" stroke-width="1.8" />
  <circle cx="14" cy="16.5" r="1.1" fill="#173630" />
  <circle cx="19" cy="16.5" r="1.1" fill="#173630" />
  <path d="M15.6 19.2 16 20l.4-.8" fill="none" stroke="#173630" stroke-linecap="round" stroke-linejoin="round" stroke-width="1.6" />
  <path d="M16 20c-1.6 0-2.7.5-3.4 1.4M16 20c1.6 0 2.7.5 3.4 1.4" fill="none" stroke="#173630" stroke-linecap="round" stroke-width="1.5" />
  <path d="m24.2 8.3.5 1.5 1.6.5-1.6.5-.5 1.5-.5-1.5-1.5-.5 1.5-.5.5-1.5Z" fill="#FFE5AA" />
</svg>
