<svg width="1200" height="675" viewBox="0 0 1200 675" fill="none" xmlns="http://www.w3.org/2000/svg">
  <rect width="1200" height="675" fill="#08111F"/>
  <rect width="1200" height="675" fill="url(#bgGlow)"/>
  <g opacity="0.15">
    <path d="M0 96H1200" stroke="#8FB8FF" stroke-width="1"/>
    <path d="M0 192H1200" stroke="#8FB8FF" stroke-width="1"/>
    <path d="M0 288H1200" stroke="#8FB8FF" stroke-width="1"/>
    <path d="M0 384H1200" stroke="#8FB8FF" stroke-width="1"/>
    <path d="M0 480H1200" stroke="#8FB8FF" stroke-width="1"/>
    <path d="M0 576H1200" stroke="#8FB8FF" stroke-width="1"/>
    <path d="M120 0V675" stroke="#8FB8FF" stroke-width="1"/>
    <path d="M240 0V675" stroke="#8FB8FF" stroke-width="1"/>
    <path d="M360 0V675" stroke="#8FB8FF" stroke-width="1"/>
    <path d="M480 0V675" stroke="#8FB8FF" stroke-width="1"/>
    <path d="M600 0V675" stroke="#8FB8FF" stroke-width="1"/>
    <path d="M720 0V675" stroke="#8FB8FF" stroke-width="1"/>
    <path d="M840 0V675" stroke="#8FB8FF" stroke-width="1"/>
    <path d="M960 0V675" stroke="#8FB8FF" stroke-width="1"/>
    <path d="M1080 0V675" stroke="#8FB8FF" stroke-width="1"/>
  </g>
  <circle cx="918" cy="176" r="170" fill="url(#orb)" opacity="0.45"/>
  <circle cx="1015" cy="534" r="120" fill="url(#orbSmall)" opacity="0.35"/>
  <rect x="100" y="95" width="426" height="486" rx="28" fill="#0F1D34" stroke="#294E83" stroke-width="2"/>
  <rect x="140" y="136" width="346" height="48" rx="12" fill="#102543"/>
  <rect x="140" y="214" width="168" height="118" rx="18" fill="#0B1730" stroke="#274A7E" stroke-width="2"/>
  <rect x="330" y="214" width="156" height="118" rx="18" fill="#0B1730" stroke="#274A7E" stroke-width="2"/>
  <rect x="140" y="354" width="346" height="68" rx="18" fill="#0B1730" stroke="#274A7E" stroke-width="2"/>
  <rect x="140" y="445" width="346" height="96" rx="18" fill="#0B1730" stroke="#274A7E" stroke-width="2"/>
  <path d="M560 182C643 182 685 122 762 122H1016C1079 122 1120 163 1120 226V446C1120 509 1079 550 1016 550H739C672 550 639 586 561 586" stroke="#4A86DB" stroke-width="4" stroke-linecap="round"/>
  <circle cx="560" cy="182" r="13" fill="#79AFFF"/>
  <circle cx="1120" cy="226" r="13" fill="#79AFFF"/>
  <circle cx="1120" cy="446" r="13" fill="#79AFFF"/>
  <circle cx="560" cy="586" r="13" fill="#79AFFF"/>
  <rect x="649" y="219" width="354" height="175" rx="24" fill="#0B1730" stroke="#4A86DB" stroke-width="2"/>
  <rect x="649" y="416" width="209" height="94" rx="22" fill="#0B1730" stroke="#4A86DB" stroke-width="2"/>
  <rect x="879" y="416" width="124" height="94" rx="22" fill="#0B1730" stroke="#4A86DB" stroke-width="2"/>
  <text x="140" y="170" fill="#9ABEFF" font-family="Arial, Helvetica, sans-serif" font-size="26" font-weight="700">32-BIT LEGEND</text>
  <text x="172" y="284" fill="#F5F9FF" font-family="Arial, Helvetica, sans-serif" font-size="42" font-weight="800">EXE</text>
  <text x="367" y="284" fill="#F5F9FF" font-family="Arial, Helvetica, sans-serif" font-size="42" font-weight="800">DLL</text>
  <text x="171" y="398" fill="#8FB8FF" font-family="Arial, Helvetica, sans-serif" font-size="24" font-weight="700">LUA  /  SHARED MEMORY  /  IPC</text>
  <text x="171" y="485" fill="#F5F9FF" font-family="Arial, Helvetica, sans-serif" font-size="30" font-weight="800">MFC  +  C/C++  +  ASM</text>
  <text x="171" y="522" fill="#8FB8FF" font-family="Arial, Helvetica, sans-serif" font-size="20" font-weight="600">FRAMEWORK / CONTROL / AUTOMATION</text>
  <text x="689" y="285" fill="#F5F9FF" font-family="Arial, Helvetica, sans-serif" font-size="62" font-weight="900">32-BIT</text>
  <text x="689" y="346" fill="#8FB8FF" font-family="Arial, Helvetica, sans-serif" font-size="34" font-weight="700">COMMERCIAL FRAMEWORK</text>
  <text x="689" y="464" fill="#F5F9FF" font-family="Arial, Helvetica, sans-serif" font-size="26" font-weight="800">MIDDLE CONTROL</text>
  <text x="689" y="494" fill="#8FB8FF" font-family="Arial, Helvetica, sans-serif" font-size="18" font-weight="600">MULTI ACCOUNT / SCRIPT / CONFIG</text>
  <text x="911" y="470" fill="#F5F9FF" font-family="Arial, Helvetica, sans-serif" font-size="24" font-weight="800">399</text>
  <defs>
    <radialGradient id="bgGlow" cx="0" cy="0" r="1" gradientUnits="userSpaceOnUse" gradientTransform="translate(980 84) rotate(130.077) scale(739.625 963.482)">
      <stop stop-color="#15335A"/>
      <stop offset="1" stop-color="#08111F" stop-opacity="0"/>
    </radialGradient>
    <radialGradient id="orb" cx="0" cy="0" r="1" gradientUnits="userSpaceOnUse" gradientTransform="translate(918 176) rotate(90) scale(170)">
      <stop stop-color="#4A86DB"/>
      <stop offset="1" stop-color="#4A86DB" stop-opacity="0"/>
    </radialGradient>
    <radialGradient id="orbSmall" cx="0" cy="0" r="1" gradientUnits="userSpaceOnUse" gradientTransform="translate(1015 534) rotate(90) scale(120)">
      <stop stop-color="#9BDAFF"/>
      <stop offset="1" stop-color="#9BDAFF" stop-opacity="0"/>
    </radialGradient>
  </defs>
</svg>
